<?xml version="1.0" encoding="utf-8"?>
<!-- Generator: Adobe Illustrator 19.0.1, SVG Export Plug-In . SVG Version: 6.00 Build 0)  -->
<svg version="1.1" id="Слой_1" xmlns="http://www.w3.org/2000/svg" xmlns:xlink="http://www.w3.org/1999/xlink" x="0px" y="0px"
	 viewBox="242 20 548 94.5" width="600" style="enable-background:new 242 20 548 94.5;" xml:space="preserve">
<style type="text/css">
	.st0{fill:#F4D864;}
	.st1{fill:none;stroke:#F4D864;stroke-width:2;stroke-miterlimit:10;}
	.st2{fill:#FFFFFF;}
	.st3{fill:#CCCCCC;}
	.st4{fill:#70B5E8;}
	.st5{fill:none;stroke:#70B5E8;stroke-linecap:round;stroke-miterlimit:10;}
	.st6{fill:none;stroke:#70B5E8;stroke-width:2;stroke-linecap:round;stroke-miterlimit:10;}
	.st7{fill:none;stroke:#CCCCCC;stroke-miterlimit:10;}
	.st8{fill:none;stroke:#CCCCCC;stroke-width:2;stroke-miterlimit:10;}
</style>
<g>
	<path class="st0" d="M253.4,31.1c-1.7,0-3.1,1.4-3.1,3.1c0,1.7,1.4,3.1,3.1,3.1c1.7,0,3.1-1.4,3.1-3.1
		C256.5,32.5,255.1,31.1,253.4,31.1"/>
	<path class="st0" d="M253.7,41.4c-0.3,0-0.5-0.2-0.5-0.5v-2c0-0.3,0.2-0.5,0.5-0.5s0.5,0.2,0.5,0.5v2
		C254.2,41.2,254,41.4,253.7,41.4"/>
	<path class="st0" d="M253.7,29.7c-0.3,0-0.5-0.2-0.5-0.5v-2c0-0.3,0.2-0.5,0.5-0.5s0.5,0.2,0.5,0.5v2
		C254.2,29.4,254,29.7,253.7,29.7"/>
	<path class="st0" d="M259.9,34.9h-2c-0.3,0-0.5-0.2-0.5-0.5c0-0.3,0.2-0.5,0.5-0.5h2c0.3,0,0.5,0.2,0.5,0.5
		C260.4,34.7,260.2,34.9,259.9,34.9"/>
	<path class="st0" d="M249.2,34.9h-2c-0.3,0-0.5-0.2-0.5-0.5c0-0.3,0.2-0.5,0.5-0.5h2c0.3,0,0.5,0.2,0.5,0.5
		C249.6,34.7,249.4,34.9,249.2,34.9"/>
	<path class="st0" d="M258.3,39.1c-0.1,0-0.3,0-0.3-0.1l-1.4-1.4c-0.2-0.2-0.2-0.5,0-0.7c0.2-0.2,0.5-0.2,0.7,0l1.4,1.4
		c0.2,0.2,0.2,0.5,0,0.7C258.5,39,258.4,39.1,258.3,39.1"/>
	<path class="st0" d="M250,30.8c-0.1,0-0.3,0-0.3-0.1l-1.4-1.4c-0.2-0.2-0.2-0.5,0-0.7c0.2-0.2,0.5-0.2,0.7,0l1.4,1.4
		c0.2,0.2,0.2,0.5,0,0.7C250.2,30.7,250.1,30.8,250,30.8"/>
	<path class="st0" d="M256.9,31.4c-0.1,0-0.3,0-0.3-0.1c-0.2-0.2-0.2-0.5,0-0.7l1.4-1.4c0.2-0.2,0.5-0.2,0.7,0
		c0.2,0.2,0.2,0.5,0,0.7l-1.4,1.4C257.1,31.4,257,31.4,256.9,31.4"/>
	<path class="st0" d="M248.6,39.8c-0.1,0-0.3,0-0.3-0.1c-0.2-0.2-0.2-0.5,0-0.7l1.4-1.4c0.2-0.2,0.5-0.2,0.7,0
		c0.2,0.2,0.2,0.5,0,0.7l-1.4,1.4C248.8,39.7,248.7,39.8,248.6,39.8"/>
</g>
<path class="st0" d="M291.3,38.5c-3.5,0-6.4,2.9-6.4,6.4c0,3.5,2.9,6.4,6.4,6.4c3.5,0,6.4-2.9,6.4-6.4
	C297.7,41.4,294.8,38.5,291.3,38.5"/>
<path class="st0" d="M291.8,60c-0.6,0-1-0.5-1-1v-4.1c0-0.6,0.4-1,1-1s1,0.5,1,1V59C292.8,59.6,292.4,60,291.8,60"/>
<path class="st0" d="M291.8,35.6c-0.6,0-1-0.5-1-1v-4.1c0-0.6,0.4-1,1-1s1,0.5,1,1v4.1C292.8,35.1,292.4,35.6,291.8,35.6"/>
<path class="st0" d="M304.8,46.4h-4.1c-0.6,0-1-0.4-1-1c0-0.6,0.5-1,1-1h4.1c0.6,0,1,0.4,1,1C305.8,46,305.4,46.4,304.8,46.4"/>
<path class="st0" d="M282.4,46.4h-4.1c-0.6,0-1-0.4-1-1c0-0.6,0.5-1,1-1h4.1c0.6,0,1,0.4,1,1C283.4,46,282.9,46.4,282.4,46.4"/>
<path class="st0" d="M301.4,55.1c-0.3,0-0.5-0.1-0.7-0.3l-2.9-2.9c-0.4-0.4-0.4-1,0-1.4c0.4-0.4,1-0.4,1.4,0l2.9,2.9
	c0.4,0.4,0.4,1,0,1.4C301.9,55,301.6,55.1,301.4,55.1"/>
<path class="st0" d="M284.1,37.8c-0.3,0-0.5-0.1-0.7-0.3l-2.9-2.9c-0.4-0.4-0.4-1,0-1.4c0.4-0.4,1-0.4,1.4,0l2.9,2.9
	c0.4,0.4,0.4,1,0,1.4C284.6,37.7,284.3,37.8,284.1,37.8"/>
<path class="st0" d="M298.5,39.3c-0.3,0-0.5-0.1-0.7-0.3c-0.4-0.4-0.4-1,0-1.4l2.9-2.9c0.4-0.4,1-0.4,1.4,0c0.4,0.4,0.4,1,0,1.4
	l-2.9,2.9C299,39.2,298.7,39.3,298.5,39.3"/>
<path class="st0" d="M281.2,56.6c-0.3,0-0.5-0.1-0.7-0.3c-0.4-0.4-0.4-1,0-1.4l2.9-2.9c0.4-0.4,1-0.4,1.4,0c0.4,0.4,0.4,1,0,1.4
	l-2.9,2.9C281.7,56.5,281.4,56.6,281.2,56.6"/>
<path class="st0" d="M337.4,31.5c0,2.4-1.9,4.3-4.3,4.3c-2.4,0-4.3-1.9-4.3-4.3s1.9-4.3,4.3-4.3S337.4,29.2,337.4,31.5"/>
<path class="st1" d="M337.4,31.5c0,2.4-1.9,4.3-4.3,4.3c-2.4,0-4.3-1.9-4.3-4.3s1.9-4.3,4.3-4.3S337.4,29.2,337.4,31.5z"/>
<path class="st2" d="M331.5,41.6c-1.4,0-2.5-1.1-2.5-2.5s1.1-2.5,2.5-2.5h0.5l0.2-0.5c0.3-1.8,2-3.1,3.8-3.1c1.9,0,3.5,1.3,3.8,3.1
	l0.1,0.5c0,0,0.5,0,0.5,0c1.5,0,2.6,1.1,2.6,2.5c0,1.4-1.1,2.5-2.5,2.5H331.5z"/>
<path class="st3" d="M336,33.6c1.6,0,2.9,1.1,3.2,2.6l0.2,1l1,0l0,0l0,0c1.1,0,1.9,0.8,1.9,1.9c0,1-0.9,1.9-1.9,1.9h-9
	c-1.1,0-1.9-0.8-1.9-1.9c0-1,0.9-1.9,1.9-1.9l0.1,0h0l1,0l0.2-1C333.1,34.7,334.4,33.6,336,33.6 M336,32.4c-2.2,0-4,1.6-4.4,3.6
	c0,0-0.1,0-0.1,0c-1.7,0-3.1,1.4-3.1,3.1c0,1.7,1.4,3.1,3.1,3.1h9c1.7,0,3.1-1.4,3.1-3.1c0-1.7-1.4-3.1-3.1-3.1c0,0-0.1,0-0.1,0
	C340,34,338.2,32.4,336,32.4"/>
<path class="st0" d="M378.2,38.6c0,4.9-4.1,9-9,9s-9-4.1-9-9s4.1-9,9-9S378.2,33.6,378.2,38.6"/>
<path class="st1" d="M378.2,38.6c0,4.9-4.1,9-9,9s-9-4.1-9-9s4.1-9,9-9S378.2,33.6,378.2,38.6z"/>
<path class="st2" d="M365.8,62.4c-2.9,0-5.2-2.3-5.2-5.2c0-2.9,2.4-5.2,5.2-5.2h1l0.4-1c0.7-3.8,4.1-6.5,8-6.5
	c3.9,0,7.2,2.7,7.9,6.5l0.2,1.1c0,0,1.1-0.1,1.1-0.1c3,0,5.4,2.3,5.4,5.2c0,2.9-2.4,5.2-5.2,5.2H365.8z"/>
<path class="st3" d="M375.2,42.9c3.3,0,6.1,2.3,6.7,5.5l0.4,2.1l2.1-0.1l0.1,0l0.1,0c2.2,0,4,1.8,4,3.9c0,2.2-1.8,3.9-4,3.9h-18.8
	c-2.2,0-4-1.8-4-3.9s1.8-3.9,4-3.9l0.1,0h0l2.2,0.1l0.4-2.1C369.1,45.2,371.9,42.9,375.2,42.9 M375.2,40.4c-4.6,0-8.4,3.2-9.2,7.5
	c-0.1,0-0.1,0-0.2,0c-3.6,0-6.5,2.9-6.5,6.4c0,3.6,2.9,6.4,6.5,6.4h18.8c3.6,0,6.5-2.9,6.5-6.4c0-3.6-2.9-6.4-6.5-6.4
	c-0.1,0-0.1,0-0.2,0C383.5,43.6,379.7,40.4,375.2,40.4"/>
<path class="st3" d="M413.6,28.7c1.3,0,2.4,0.9,2.6,2.1l0.2,1l1,0l0,0l0,0c0.8,0,1.5,0.7,1.5,1.5s-0.7,1.5-1.5,1.5c-2.1,0-5,0-6.5,0
	l0,0l-1.2,0l0,0c-0.8,0-1.5-0.7-1.5-1.5s0.7-1.5,1.5-1.5l0,0l0,0l1,0l0.2-1C411.2,29.7,412.3,28.7,413.6,28.7 M413.6,27.5
	c-1.9,0-3.5,1.3-3.8,3.1c0,0-0.1,0-0.1,0c-1.5,0-2.7,1.2-2.7,2.7c0,1.5,1.2,2.7,2.7,2.7c0,0,0.1,0,0.1,0c-0.1,0,7.7,0,7.7,0
	c1.5,0,2.7-1.2,2.7-2.7c0-1.5-1.2-2.7-2.7-2.7c0,0-0.1,0-0.1,0C417.1,28.9,415.5,27.5,413.6,27.5"/>
<path class="st2" d="M407.2,42.6c-1.4,0-2.5-1.1-2.5-2.5s1.1-2.5,2.5-2.5h0.5l0.2-0.5c0.3-1.8,2-3.1,3.8-3.1c1.9,0,3.5,1.3,3.8,3.1
	l0.1,0.5c0,0,0.5,0,0.5,0c1.5,0,2.6,1.1,2.6,2.5c0,1.4-1.1,2.5-2.5,2.5C416.2,42.6,407.2,42.6,407.2,42.6z"/>
<path class="st2" d="M411.7,34.6c1.6,0,2.9,1.1,3.2,2.6l0.2,1l1,0l0,0l0,0c1.1,0,1.9,0.8,1.9,1.9c0,1-0.9,1.9-1.9,1.9h-9
	c-1.1,0-1.9-0.8-1.9-1.9c0-1,0.9-1.9,1.9-1.9l0.1,0h0l1,0l0.2-1C408.7,35.7,410.1,34.6,411.7,34.6 M411.7,33.4c-2.2,0-4,1.6-4.4,3.6
	c0,0-0.1,0-0.1,0c-1.7,0-3.1,1.4-3.1,3.1c0,1.7,1.4,3.1,3.1,3.1h9c1.7,0,3.1-1.4,3.1-3.1c0-1.7-1.4-3.1-3.1-3.1c0,0-0.1,0-0.1,0
	C415.7,34.9,413.9,33.4,411.7,33.4"/>
<path class="st2" d="M411.7,34.6c1.6,0,2.9,1.1,3.2,2.6l0.2,1l1,0l0,0l0,0c1.1,0,1.9,0.8,1.9,1.9c0,1-0.9,1.9-1.9,1.9h-9
	c-1.1,0-1.9-0.8-1.9-1.9c0-1,0.9-1.9,1.9-1.9l0.1,0l0,0l1,0l0.2-1C408.7,35.7,410.1,34.6,411.7,34.6 M411.7,33.4
	c-2.2,0-4,1.6-4.4,3.6c0,0-0.1,0-0.1,0c-1.7,0-3.1,1.4-3.1,3.1c0,1.7,1.4,3.1,3.1,3.1h9c1.7,0,3.1-1.4,3.1-3.1s-1.4-3.1-3.1-3.1
	c0,0-0.1,0-0.1,0C415.7,34.9,413.9,33.4,411.7,33.4"/>
<path class="st3" d="M416.2,38.2L416.2,38.2L416.2,38.2l-1.1,0l-0.2-1c-0.3-1.5-1.7-2.6-3.2-2.6c-1.6,0-2.9,1.1-3.2,2.6l-0.2,1l-1,0
	h0l-0.1,0c-1,0-1.9,0.9-1.9,1.9c0,1,0.9,1.9,1.9,1.9h9c1.1,0,1.9-0.9,1.9-1.9C418.1,39.1,417.2,38.2,416.2,38.2"/>
<path class="st3" d="M453.1,33.1c2.7,0,5,1.9,5.5,4.5l0.4,2.1l2.1-0.1l0.1,0l0,0c1.7,0,3.1,1.4,3.1,3.1s-1.4,3.1-3.1,3.1
	c-4.4,0-10.3,0-13.6,0l0-0.1l-2.5,0.1l-0.1,0c-1.7,0-3.1-1.4-3.1-3.1c0-1.7,1.4-3.1,3.1-3.1l0.1,0l0,0l2.2,0.1l0.4-2.1
	C448.1,35,450.4,33.1,453.1,33.1 M453.1,30.6c-3.9,0-7.2,2.8-7.9,6.5c-0.1,0-0.1,0-0.2,0c-3.1,0-5.6,2.5-5.6,5.6
	c0,3.1,2.5,5.6,5.6,5.6c0.1,0,0.1,0,0.2,0c-0.2,0,16,0,16.1,0c3.1,0,5.6-2.5,5.6-5.6c0-3.1-2.5-5.6-5.6-5.6c-0.1,0-0.1,0-0.2,0
	C460.3,33.4,457,30.6,453.1,30.6"/>
<path class="st2" d="M439.7,61.9c-2.9,0-5.2-2.3-5.2-5.2c0-2.9,2.4-5.2,5.2-5.2h1l0.4-1c0.7-3.8,4.1-6.5,8-6.5
	c3.9,0,7.2,2.7,7.9,6.5l0.2,1c0,0,1.1,0,1.1,0c3.1,0,5.4,2.3,5.4,5.2c0,2.9-2.4,5.2-5.3,5.2L439.7,61.9L439.7,61.9z"/>
<path class="st2" d="M449.1,45.2c3.3,0,6.1,2.3,6.7,5.5l0.4,2.1l2.1-0.1l0.1,0l0,0c2.2,0,4,1.8,4,3.9c0,2.2-1.8,3.9-4,3.9h-18.8
	c-2.2,0-4-1.8-4-3.9c0-2.2,1.8-3.9,4-3.9l0.1,0h0l2.2,0.1l0.4-2.1C442.9,47.5,445.8,45.2,449.1,45.2 M449.1,42.7
	c-4.6,0-8.4,3.2-9.2,7.5c-0.1,0-0.1,0-0.2,0c-3.6,0-6.5,2.9-6.5,6.4c0,3.6,2.9,6.4,6.5,6.4h18.8c3.6,0,6.5-2.9,6.5-6.4
	c0-3.6-2.9-6.4-6.5-6.4c-0.1,0-0.1,0-0.2,0C457.4,46,453.6,42.7,449.1,42.7"/>
<path class="st2" d="M449.1,45.2c3.3,0,6.1,2.3,6.7,5.5l0.4,2.1l2.1-0.1l0.1,0l0,0c2.2,0,4,1.8,4,3.9c0,2.2-1.8,3.9-4,3.9h-18.8
	c-2.2,0-4-1.8-4-3.9c0-2.2,1.8-3.9,4-3.9l0.1,0l0,0l2.2,0.1l0.4-2.1C442.9,47.5,445.8,45.2,449.1,45.2 M449.1,42.7
	c-4.6,0-8.4,3.2-9.2,7.5c-0.1,0-0.1,0-0.2,0c-3.6,0-6.5,2.9-6.5,6.4c0,3.6,2.9,6.4,6.5,6.4h18.8c3.6,0,6.5-2.9,6.5-6.4
	c0-3.6-2.9-6.4-6.5-6.4c-0.1,0-0.1,0-0.2,0C457.4,46,453.6,42.7,449.1,42.7"/>
<path class="st3" d="M458.4,52.7L458.4,52.7l-0.1,0l-2.1,0.1l-0.4-2.1c-0.6-3.2-3.4-5.5-6.7-5.5c-3.3,0-6.1,2.3-6.7,5.5l-0.4,2.2
	l-2.2,0h0l-0.1-0.1c-2.2,0-4,1.9-4,4c0,2.2,1.8,4,4,4h18.8c2.2,0,4-1.9,4-4.1C462.4,54.6,460.6,52.7,458.4,52.7"/>
<path class="st0" d="M493.9,30.6c0,2-1.6,3.7-3.7,3.7c-2,0-3.7-1.6-3.7-3.7s1.6-3.7,3.7-3.7C492.3,26.9,493.9,28.6,493.9,30.6"/>
<path class="st2" d="M489.6,37.3c-1.4,0-2.5-1.1-2.5-2.5s1.1-2.5,2.5-2.5h0.5l0.2-0.5c0.3-1.8,2-3.1,3.8-3.1c1.9,0,3.5,1.3,3.8,3.1
	l0.1,0.5c0,0,0.5,0,0.5,0c1.5,0,2.6,1.1,2.6,2.5c0,1.4-1.1,2.5-2.5,2.5L489.6,37.3L489.6,37.3z"/>
<path class="st3" d="M494.2,29.4c1.6,0,2.9,1.1,3.2,2.6l0.2,1l1,0l0,0l0,0c1.1,0,1.9,0.8,1.9,1.9c0,1-0.9,1.9-1.9,1.9h-9
	c-1.1,0-1.9-0.8-1.9-1.9c0-1,0.9-1.9,1.9-1.9l0.1,0l0,0l1,0l0.2-1C491.2,30.5,492.6,29.4,494.2,29.4 M494.2,28.2
	c-2.2,0-4,1.6-4.4,3.6c0,0-0.1,0-0.1,0c-1.7,0-3.1,1.4-3.1,3.1c0,1.7,1.4,3.1,3.1,3.1h9c1.7,0,3.1-1.4,3.1-3.1
	c0-1.7-1.4-3.1-3.1-3.1c0,0-0.1,0-0.1,0C498.2,29.7,496.3,28.2,494.2,28.2"/>
<path class="st3" d="M498.7,36.1c0,0-0.1,0-0.1,0c-0.4-2.1-2.2-3.6-4.4-3.6c-2.2,0-4,1.6-4.4,3.6c0,0-0.1,0-0.1,0
	c-1.7,0-3.1,1.4-3.1,3.1c0,1.7,1.4,3.1,3.1,3.1h9c1.7,0,3.1-1.4,3.1-3.1C501.8,37.4,500.4,36.1,498.7,36.1"/>
<path class="st0" d="M532.9,36.9c0,4.2-3.4,7.6-7.6,7.6c-4.2,0-7.6-3.4-7.6-7.6s3.4-7.6,7.6-7.6C529.5,29.3,532.9,32.7,532.9,36.9"
	/>
<path class="st2" d="M524,51c-2.9,0-5.2-2.3-5.2-5.2c0-2.9,2.4-5.2,5.2-5.2h1l0.4-1c0.7-3.8,4.1-6.5,8-6.5c3.9,0,7.2,2.7,7.9,6.5
	l0.2,1c0,0,1.1,0,1.1,0c3.1,0,5.4,2.3,5.4,5.2c0,2.9-2.4,5.2-5.3,5.2L524,51L524,51z"/>
<path class="st3" d="M533.4,34.3c3.3,0,6.1,2.3,6.7,5.5l0.4,2.1l2.1-0.1l0.1,0l0,0c2.2,0,4,1.8,4,3.9c0,2.2-1.8,3.9-4,3.9H524
	c-2.2,0-4-1.8-4-3.9c0-2.2,1.8-3.9,4-3.9l0.1,0l0,0l2.2,0.1l0.4-2.1C527.3,36.6,530.1,34.3,533.4,34.3 M533.4,31.8
	c-4.6,0-8.4,3.2-9.2,7.5c-0.1,0-0.1,0-0.2,0c-3.6,0-6.5,2.9-6.5,6.4c0,3.6,2.9,6.4,6.5,6.4h18.8c3.6,0,6.5-2.9,6.5-6.4
	c0-3.6-2.9-6.4-6.5-6.4c-0.1,0-0.1,0-0.2,0C541.8,35.1,538,31.8,533.4,31.8"/>
<path class="st3" d="M542.8,48.3c-0.1,0-0.1,0-0.2,0c-0.8-4.3-4.6-7.5-9.2-7.5c-4.6,0-8.4,3.2-9.2,7.5c-0.1,0-0.1,0-0.2,0
	c-3.6,0-6.5,2.9-6.5,6.4c0,3.6,2.9,6.4,6.5,6.4h18.8c3.6,0,6.5-2.9,6.5-6.4C549.3,51.2,546.4,48.3,542.8,48.3"/>
<g>
	<path class="st3" d="M578.6,32.2c0,0-0.1,0-0.1,0c-0.4-2.1-2.2-3.6-4.4-3.6c-2.2,0-4,1.6-4.4,3.6c0,0-0.1,0-0.1,0
		c-1.7,0-3.1,1.4-3.1,3.1c0,1.4,1,2.6,2.3,3l0.5-1.1c-0.9-0.1-1.7-0.9-1.7-1.9c0-1,0.9-1.9,1.9-1.9l0.1,0h0l1,0l0.2-1
		c0.3-1.5,1.7-2.6,3.2-2.6c1.6,0,2.9,1.1,3.2,2.6l0.2,1l1,0l0,0l0,0c1.1,0,1.9,0.8,1.9,1.9c0,0.7-0.4,1.3-1,1.7l-0.7,1.4
		c1.6-0.1,2.9-1.4,2.9-3.1C581.7,33.6,580.3,32.2,578.6,32.2"/>
	<path class="st3" d="M577.8,36.4h-5.8c-0.3,0-0.5-0.2-0.5-0.5s0.2-0.5,0.5-0.5h5.8c0.3,0,0.5,0.2,0.5,0.5
		C578.3,36.1,578.1,36.4,577.8,36.4"/>
	<path class="st3" d="M576.9,38.3h-5.8c-0.3,0-0.5-0.2-0.5-0.5c0-0.3,0.2-0.5,0.5-0.5h5.8c0.3,0,0.5,0.2,0.5,0.5
		C577.4,38.1,577.1,38.3,576.9,38.3"/>
	<path class="st3" d="M575.9,40.2h-5.8c-0.3,0-0.5-0.2-0.5-0.5s0.2-0.5,0.5-0.5h5.8c0.3,0,0.5,0.2,0.5,0.5S576.2,40.2,575.9,40.2"/>
	<path class="st3" d="M575,42.1h-5.8c-0.3,0-0.5-0.2-0.5-0.5c0-0.3,0.2-0.5,0.5-0.5h5.8c0.3,0,0.5,0.2,0.5,0.5
		C575.4,41.9,575.2,42.1,575,42.1"/>
</g>
<path class="st3" d="M620.5,40.9c-0.1,0-0.1,0-0.2,0c-0.8-4.3-4.6-7.5-9.2-7.5c-4.6,0-8.4,3.2-9.2,7.5c-0.1,0-0.1,0-0.2,0
	c-3.6,0-6.5,2.9-6.5,6.4c0,3,2.1,5.5,4.9,6.2l1.1-2.3c-2-0.2-3.5-1.9-3.5-3.9c0-2.2,1.8-3.9,4-3.9l0.1,0.1h0l2.2,0l0.4-2.2
	c0.6-3.2,3.4-5.5,6.7-5.5c3.3,0,6.1,2.3,6.7,5.5l0.4,2.1l2.1-0.1l0.1,0l0,0c2.2,0,4,1.8,4,3.9c0,1.5-0.9,2.8-2.1,3.4l-1.4,2.9
	c3.3-0.3,6-3,6-6.4C627,43.7,624.1,40.9,620.5,40.9"/>
<path class="st3" d="M618.4,49h-12c-0.6,0-1-0.4-1-1c0-0.6,0.4-1,1-1h12c0.6,0,1,0.4,1,1C619.4,48.5,618.9,49,618.4,49"/>
<path class="st3" d="M617,53.5h-12c-0.6,0-1-0.4-1-1c0-0.6,0.4-1,1-1h12c0.6,0,1,0.4,1,1C618,53,617.6,53.5,617,53.5"/>
<path class="st3" d="M615,57.5h-12c-0.6,0-1-0.4-1-1c0-0.6,0.4-1,1-1h12c0.6,0,1,0.4,1,1C616,57,615.6,57.5,615,57.5"/>
<path class="st3" d="M613,61.5h-12c-0.6,0-1-0.4-1-1s0.4-1,1-1h12c0.6,0,1,0.4,1,1S613.6,61.5,613,61.5"/>
<path class="st3" d="M655.1,32.2c0,0-0.1,0-0.1,0c-0.4-2.1-2.2-3.6-4.4-3.6c-2.2,0-4,1.6-4.4,3.6c0,0-0.1,0-0.1,0
	c-1.7,0-3.1,1.4-3.1,3.1c0,1.4,1,2.6,2.3,3l0.5-1.1c-0.9-0.1-1.7-0.9-1.7-1.9c0-1,0.9-1.9,1.9-1.9l0.1,0h0l1,0l0.2-1
	c0.3-1.5,1.7-2.6,3.2-2.6c1.6,0,2.9,1.1,3.2,2.6l0.2,1l1,0l0,0l0,0c1.1,0,1.9,0.8,1.9,1.9c0,0.7-0.4,1.3-1,1.7l-0.7,1.4
	c1.6-0.1,2.9-1.4,2.9-3.1C658.2,33.6,656.8,32.2,655.1,32.2"/>
<path class="st4" d="M646.4,39.7c-0.1,0-0.1,0-0.2,0c-0.2-0.1-0.3-0.4-0.2-0.6l1.7-3.8c0.1-0.2,0.4-0.3,0.6-0.2
	c0.2,0.1,0.3,0.4,0.2,0.6l-1.7,3.8C646.8,39.6,646.6,39.7,646.4,39.7"/>
<path class="st4" d="M647.8,42.2c-0.1,0-0.1,0-0.2,0c-0.2-0.1-0.3-0.4-0.2-0.6l1.7-3.8c0.1-0.2,0.4-0.3,0.6-0.2
	c0.2,0.1,0.3,0.4,0.2,0.6l-1.7,3.8C648.1,42.1,647.9,42.2,647.8,42.2"/>
<path class="st4" d="M651.2,39.7c-0.1,0-0.1,0-0.2,0c-0.2-0.1-0.3-0.4-0.2-0.6l1.7-3.8c0.1-0.2,0.4-0.3,0.6-0.2
	c0.2,0.1,0.3,0.4,0.2,0.6l-1.7,3.8C651.6,39.6,651.4,39.7,651.2,39.7"/>
<path class="st4" d="M652.6,42.2c-0.1,0-0.1,0-0.2,0c-0.2-0.1-0.3-0.4-0.2-0.6l1.7-3.8c0.1-0.2,0.4-0.3,0.6-0.2
	c0.2,0.1,0.3,0.4,0.2,0.6l-1.7,3.8C652.9,42.1,652.7,42.2,652.6,42.2"/>
<path class="st3" d="M696.7,40.2c-0.1,0-0.1,0-0.2,0c-0.8-4.3-4.6-7.5-9.2-7.5c-4.6,0-8.4,3.2-9.2,7.5c-0.1,0-0.1,0-0.2,0
	c-3.6,0-6.5,2.9-6.5,6.4c0,3,2.1,5.5,4.9,6.2l1.1-2.3c-2-0.2-3.5-1.9-3.5-3.9c0-2.2,1.8-3.9,4-3.9l0.1,0.1h0l2.2,0l0.4-2.2
	c0.6-3.2,3.4-5.5,6.7-5.5c3.3,0,6.1,2.3,6.7,5.5l0.4,2.1l2.1-0.1l0.1,0l0,0c2.2,0,4,1.8,4,3.9c0,1.5-0.9,2.8-2.1,3.4l-1.4,2.9
	c3.3-0.3,6-3,6-6.4C703.2,43.1,700.3,40.2,696.7,40.2"/>
<path class="st4" d="M678.6,55.8c-0.1,0-0.3,0-0.4-0.1c-0.5-0.2-0.7-0.8-0.5-1.3l3.6-8c0.2-0.5,0.8-0.7,1.3-0.5
	c0.5,0.2,0.7,0.8,0.5,1.3l-3.6,8C679.3,55.6,678.9,55.8,678.6,55.8"/>
<path class="st4" d="M681.4,60.9c-0.1,0-0.3,0-0.4-0.1c-0.5-0.2-0.7-0.8-0.5-1.3l3.6-8c0.2-0.5,0.8-0.7,1.3-0.5
	c0.5,0.2,0.7,0.8,0.5,1.3l-3.6,8C682.1,60.7,681.7,60.9,681.4,60.9"/>
<path class="st4" d="M688.6,55.8c-0.1,0-0.3,0-0.4-0.1c-0.5-0.2-0.7-0.8-0.5-1.3l3.6-8c0.2-0.5,0.8-0.7,1.3-0.5
	c0.5,0.2,0.7,0.8,0.5,1.3l-3.6,8C689.3,55.6,688.9,55.8,688.6,55.8"/>
<path class="st4" d="M691.4,60.9c-0.1,0-0.3,0-0.4-0.1c-0.5-0.2-0.7-0.8-0.5-1.3l3.6-8c0.2-0.5,0.8-0.7,1.3-0.5
	c0.5,0.2,0.7,0.8,0.5,1.3l-3.6,8C692.1,60.7,691.7,60.9,691.4,60.9"/>
<path class="st3" d="M730.9,33.3c0,0-0.1,0-0.1,0c-0.4-2.1-2.2-3.6-4.4-3.6c-2.2,0-4,1.6-4.4,3.6c0,0-0.1,0-0.1,0
	c-1.7,0-3.1,1.4-3.1,3.1c0,1.6,1.3,2.9,2.9,3.1l0.5-1.2l-0.2,0l0,0l0,0c-1.1,0-1.9-0.8-1.9-1.9c0-1,0.9-1.9,1.9-1.9l0.1,0h0l1,0
	l0.2-1c0.3-1.5,1.7-2.6,3.2-2.6c1.6,0,2.9,1.1,3.2,2.6l0.2,1l1,0l0,0l0,0c1.1,0,1.9,0.8,1.9,1.9c0,0.8-0.5,1.4-1.1,1.7l-0.6,1.3
	c1.6-0.1,2.9-1.4,2.9-3.1C734,34.7,732.6,33.3,730.9,33.3"/>
<path class="st0" d="M725,43l-0.8-0.6l2.3-3h-3.6l2.9-4.3l0.8,0.5l-1.9,2.8h3.8"/>
<path class="st3" d="M773.3,40.7c-0.1,0-0.1,0-0.2,0c-0.8-4.3-4.6-7.5-9.2-7.5c-4.6,0-8.4,3.2-9.2,7.5c-0.1,0-0.1,0-0.2,0
	c-3.6,0-6.5,2.9-6.5,6.4c0,3.4,2.7,6.1,6,6.4l1.1-2.5l-0.5,0l-0.1,0l0,0c-2.2,0-4-1.8-4-3.9c0-2.2,1.8-3.9,4-3.9l0.1,0.1h0l2.2,0
	l0.4-2.2c0.6-3.2,3.4-5.5,6.7-5.5c3.3,0,6.1,2.3,6.7,5.5l0.4,2.1l2.1-0.1l0.1,0l0,0c2.2,0,4,1.8,4,3.9c0,1.6-1,3-2.4,3.6l-1.2,2.8
	c3.4-0.2,6.1-3,6.1-6.4C779.8,43.5,776.8,40.7,773.3,40.7"/>
<path class="st0" d="M761,60.8l-1.6-1.2l4.9-6.3h-7.6l6-8.9l1.7,1.1l-3.9,5.8h7.9"/>
<g>
	<path class="st3" d="M257.5,77.5c0,0-0.1,0-0.1,0c-0.4-2.1-2.2-3.6-4.4-3.6c-2.2,0-4,1.6-4.4,3.6c0,0-0.1,0-0.1,0
		c-1.7,0-3.1,1.4-3.1,3.1c0,1.3,0.8,2.4,1.9,2.9l0.4-1.2c-0.6-0.3-1.1-0.9-1.1-1.7c0-1,0.9-1.9,1.9-1.9l0.1,0h0l1,0l0.2-1
		c0.3-1.5,1.7-2.6,3.2-2.6c1.6,0,2.9,1.1,3.2,2.6l0.2,1l1,0l0,0l0,0c1.1,0,1.9,0.8,1.9,1.9c0,0.9-0.6,1.6-1.3,1.8l-0.4,1.3
		c1.6-0.1,2.9-1.4,2.9-3.1C260.6,78.8,259.2,77.5,257.5,77.5"/>
	<path class="st3" d="M249.9,84.7c0,0.4-0.4,0.8-0.8,0.8c-0.4,0-0.8-0.4-0.8-0.8c0-0.4,0.4-0.8,0.8-0.8
		C249.6,83.9,249.9,84.2,249.9,84.7"/>
	<path class="st3" d="M252.6,84.7c0,0.4-0.4,0.8-0.8,0.8c-0.4,0-0.8-0.4-0.8-0.8c0-0.4,0.4-0.8,0.8-0.8
		C252.3,83.9,252.6,84.2,252.6,84.7"/>
	<path class="st3" d="M255.4,84.7c0,0.4-0.4,0.8-0.8,0.8c-0.4,0-0.8-0.4-0.8-0.8c0-0.4,0.4-0.8,0.8-0.8S255.4,84.2,255.4,84.7"/>
	<path class="st3" d="M250.9,81.9c0,0.4-0.4,0.8-0.8,0.8c-0.4,0-0.8-0.4-0.8-0.8c0-0.4,0.4-0.8,0.8-0.8
		C250.5,81.2,250.9,81.5,250.9,81.9"/>
	<path class="st3" d="M253.6,81.9c0,0.4-0.4,0.8-0.8,0.8c-0.4,0-0.8-0.4-0.8-0.8c0-0.4,0.4-0.8,0.8-0.8
		C253.2,81.2,253.6,81.5,253.6,81.9"/>
	<path class="st3" d="M256.3,81.9c0,0.4-0.4,0.8-0.8,0.8c-0.4,0-0.8-0.4-0.8-0.8c0-0.4,0.4-0.8,0.8-0.8
		C256,81.2,256.3,81.5,256.3,81.9"/>
	<path class="st3" d="M251.7,87.4c0,0.4-0.4,0.8-0.8,0.8c-0.4,0-0.8-0.4-0.8-0.8c0-0.4,0.4-0.8,0.8-0.8
		C251.3,86.6,251.7,86.9,251.7,87.4"/>
	<path class="st3" d="M249,87.4c0,0.4-0.4,0.8-0.8,0.8c-0.4,0-0.8-0.4-0.8-0.8c0-0.4,0.4-0.8,0.8-0.8C248.6,86.6,249,86.9,249,87.4"
		/>
	<path class="st3" d="M254.4,87.4c0,0.4-0.4,0.8-0.8,0.8c-0.4,0-0.8-0.4-0.8-0.8c0-0.4,0.4-0.8,0.8-0.8
		C254,86.6,254.4,86.9,254.4,87.4"/>
</g>
<path class="st3" d="M301.2,91.5c-0.1,0-0.1,0-0.2,0c-0.8-4.3-4.6-7.5-9.2-7.5c-4.6,0-8.4,3.2-9.2,7.5c-0.1,0-0.1,0-0.2,0
	c-3.6,0-6.5,2.9-6.5,6.4c0,2.7,1.6,5,4,5.9l0.8-2.4c-1.3-0.6-2.2-2-2.2-3.5c0-2.2,1.8-3.9,4-3.9l0.1,0.1h0l2.2,0l0.4-2.2
	c0.6-3.2,3.4-5.5,6.7-5.5c3.3,0,6.1,2.3,6.7,5.5l0.4,2.1l2.1-0.1l0.1,0l0,0c2.2,0,4,1.8,4,3.9c0,1.8-1.2,3.3-2.8,3.8l-0.8,2.6
	c3.4-0.2,6.1-3,6.1-6.4C307.7,94.4,304.8,91.5,301.2,91.5"/>
<path class="st3" d="M285.5,106.5c0,0.9-0.7,1.7-1.6,1.7c-0.9,0-1.6-0.7-1.6-1.7c0-0.9,0.7-1.6,1.6-1.6
	C284.7,104.9,285.5,105.6,285.5,106.5"/>
<path class="st3" d="M291.1,106.5c0,0.9-0.7,1.7-1.6,1.7c-0.9,0-1.6-0.7-1.6-1.7c0-0.9,0.7-1.6,1.6-1.6
	C290.4,104.9,291.1,105.6,291.1,106.5"/>
<path class="st3" d="M296.8,106.5c0,0.9-0.7,1.7-1.6,1.7c-0.9,0-1.6-0.7-1.6-1.7c0-0.9,0.7-1.6,1.6-1.6
	C296,104.9,296.8,105.6,296.8,106.5"/>
<path class="st3" d="M287.5,100.9c0,0.9-0.7,1.7-1.6,1.7c-0.9,0-1.6-0.7-1.6-1.7c0-0.9,0.7-1.6,1.6-1.6
	C286.7,99.2,287.5,100,287.5,100.9"/>
<path class="st3" d="M293.1,100.9c0,0.9-0.7,1.7-1.6,1.7c-0.9,0-1.6-0.7-1.6-1.7c0-0.9,0.7-1.6,1.6-1.6
	C292.4,99.2,293.1,100,293.1,100.9"/>
<path class="st3" d="M298.8,100.9c0,0.9-0.7,1.7-1.6,1.7c-0.9,0-1.6-0.7-1.6-1.7c0-0.9,0.7-1.6,1.6-1.6
	C298,99.2,298.8,100,298.8,100.9"/>
<path class="st3" d="M289.1,112.2c0,0.9-0.7,1.6-1.6,1.6c-0.9,0-1.6-0.7-1.6-1.6c0-0.9,0.7-1.7,1.6-1.7
	C288.4,110.5,289.1,111.3,289.1,112.2"/>
<path class="st3" d="M283.5,112.2c0,0.9-0.7,1.6-1.6,1.6c-0.9,0-1.6-0.7-1.6-1.6c0-0.9,0.7-1.7,1.6-1.7
	C282.7,110.5,283.5,111.3,283.5,112.2"/>
<path class="st3" d="M294.8,112.2c0,0.9-0.7,1.6-1.6,1.6c-0.9,0-1.6-0.7-1.6-1.6c0-0.9,0.7-1.7,1.6-1.7
	C294,110.5,294.8,111.3,294.8,112.2"/>
<path class="st3" d="M340.2,77.4c0,0-0.1,0-0.1,0c-0.4-2.1-2.2-3.6-4.4-3.6c-2.2,0-4,1.6-4.4,3.6c0,0-0.1,0-0.1,0
	c-1.7,0-3.1,1.4-3.1,3.1c0,1.1,0.6,2.1,1.5,2.6l0.5-1.1c-0.5-0.3-0.8-0.9-0.8-1.6c0-1,0.9-1.9,1.9-1.9l0.1,0h0l1,0l0.2-1
	c0.3-1.5,1.6-2.6,3.2-2.6c1.6,0,2.9,1.1,3.2,2.6l0.2,1l1,0l0,0l0,0c1.1,0,1.9,0.8,1.9,1.9c0,0.9-0.6,1.6-1.4,1.8l-0.5,1.3
	c1.7,0,3.1-1.4,3.1-3.1C343.3,78.7,341.9,77.4,340.2,77.4"/>
<path class="st3" d="M333.6,80.9c0,0.4-0.4,0.8-0.8,0.8c-0.4,0-0.8-0.4-0.8-0.8c0-0.4,0.4-0.8,0.8-0.8
	C333.2,80.1,333.6,80.5,333.6,80.9"/>
<path class="st3" d="M334.6,85.7c0,0.4-0.4,0.8-0.8,0.8c-0.4,0-0.8-0.4-0.8-0.8c0-0.4,0.4-0.8,0.8-0.8
	C334.2,84.9,334.6,85.3,334.6,85.7"/>
<path class="st3" d="M339.4,80.9c0,0.4-0.4,0.8-0.8,0.8c-0.4,0-0.8-0.4-0.8-0.8c0-0.4,0.4-0.8,0.8-0.8
	C339,80.1,339.4,80.5,339.4,80.9"/>
<path class="st5" d="M332.1,82.6l-2.2,4.6"/>
<path class="st5" d="M335.8,80.8l-1.1,2.4"/>
<path class="st5" d="M337.8,82.6l-2.2,4.6"/>
<path class="st3" d="M385.1,91.7c-0.1,0-0.1,0-0.2,0c-0.8-4.3-4.6-7.5-9.2-7.5c-4.6,0-8.4,3.2-9.2,7.5c-0.1,0-0.1,0-0.2,0
	c-3.6,0-6.5,2.9-6.5,6.4c0,2.3,1.3,4.4,3.1,5.5l1.1-2.2c-1.1-0.7-1.8-1.9-1.8-3.3c0-2.2,1.8-3.9,4-3.9l0.1,0.1h0l2.2,0l0.4-2.2
	c0.6-3.2,3.4-5.5,6.7-5.5c3.3,0,6.1,2.3,6.7,5.5l0.4,2.1l2.1-0.1l0.1,0l0,0c2.2,0,4,1.8,4,3.9c0,1.8-1.3,3.3-2.9,3.8l-1,2.6
	c3.6,0,6.4-2.9,6.4-6.4C391.6,94.6,388.7,91.7,385.1,91.7"/>
<path class="st3" d="M371.4,99.1c0,0.9-0.7,1.7-1.6,1.7c-0.9,0-1.6-0.7-1.6-1.7c0-0.9,0.7-1.6,1.6-1.6
	C370.7,97.4,371.4,98.1,371.4,99.1"/>
<path class="st3" d="M373.4,109.1c0,0.9-0.7,1.7-1.6,1.7c-0.9,0-1.6-0.7-1.6-1.6c0-0.9,0.7-1.6,1.6-1.6
	C372.7,107.4,373.4,108.1,373.4,109.1"/>
<path class="st3" d="M383.4,99.1c0,0.9-0.7,1.7-1.6,1.7c-0.9,0-1.6-0.7-1.6-1.7c0-0.9,0.7-1.6,1.6-1.6
	C382.7,97.4,383.4,98.1,383.4,99.1"/>
<path class="st6" d="M368.2,102.7l-4.7,9.7"/>
<path class="st6" d="M376,98.9l-2.2,4.9"/>
<path class="st6" d="M380.2,102.7l-4.7,9.7"/>
<path class="st3" d="M421.3,77.4c0,0-0.1,0-0.1,0c-0.4-2.1-2.2-3.6-4.4-3.6c-2.2,0-4,1.6-4.4,3.6c0,0-0.1,0-0.1,0
	c-1.7,0-3.1,1.4-3.1,3.1c0,1.3,0.8,2.4,1.9,2.9l0.4-1.2c-0.6-0.3-1.1-0.9-1.1-1.7c0-1,0.9-1.9,1.9-1.9l0.1,0h0l1,0l0.2-1
	c0.3-1.5,1.6-2.6,3.2-2.6c1.6,0,2.9,1.1,3.2,2.6l0.2,1l1,0l0,0l0,0c1.1,0,1.9,0.8,1.9,1.9c0,0.9-0.6,1.6-1.3,1.8l-0.4,1.3
	c1.6-0.1,2.9-1.4,2.9-3.1C424.4,78.8,423,77.4,421.3,77.4"/>
<path class="st4" d="M413.7,84.6c0,0.4-0.4,0.8-0.8,0.8c-0.4,0-0.8-0.4-0.8-0.8c0-0.4,0.4-0.8,0.8-0.8
	C413.4,83.8,413.7,84.2,413.7,84.6"/>
<path class="st3" d="M416.4,84.6c0,0.4-0.4,0.8-0.8,0.8c-0.4,0-0.8-0.4-0.8-0.8c0-0.4,0.4-0.8,0.8-0.8
	C416.1,83.8,416.4,84.2,416.4,84.6"/>
<path class="st4" d="M419.1,84.6c0,0.4-0.4,0.8-0.8,0.8c-0.4,0-0.8-0.4-0.8-0.8c0-0.4,0.4-0.8,0.8-0.8
	C418.8,83.8,419.1,84.2,419.1,84.6"/>
<path class="st3" d="M414.7,81.9c0,0.4-0.4,0.8-0.8,0.8c-0.4,0-0.8-0.4-0.8-0.8c0-0.4,0.4-0.8,0.8-0.8
	C414.3,81.1,414.7,81.4,414.7,81.9"/>
<path class="st4" d="M417.4,81.9c0,0.4-0.4,0.8-0.8,0.8c-0.4,0-0.8-0.4-0.8-0.8c0-0.4,0.4-0.8,0.8-0.8
	C417,81.1,417.4,81.4,417.4,81.9"/>
<path class="st3" d="M420.1,81.9c0,0.4-0.4,0.8-0.8,0.8c-0.4,0-0.8-0.4-0.8-0.8c0-0.4,0.4-0.8,0.8-0.8S420.1,81.4,420.1,81.9"/>
<path class="st4" d="M415.5,87.3c0,0.4-0.4,0.8-0.8,0.8c-0.4,0-0.8-0.4-0.8-0.8c0-0.4,0.4-0.8,0.8-0.8
	C415.1,86.5,415.5,86.9,415.5,87.3"/>
<path class="st3" d="M412.7,87.3c0,0.4-0.4,0.8-0.8,0.8c-0.4,0-0.8-0.4-0.8-0.8c0-0.4,0.4-0.8,0.8-0.8
	C412.4,86.5,412.7,86.9,412.7,87.3"/>
<path class="st3" d="M418.2,87.3c0,0.4-0.4,0.8-0.8,0.8c-0.4,0-0.8-0.4-0.8-0.8c0-0.4,0.4-0.8,0.8-0.8
	C417.8,86.5,418.2,86.9,418.2,87.3"/>
<path class="st3" d="M464.2,85.4c-0.1,0-0.1,0-0.2,0c-0.8-4.3-4.6-7.5-9.2-7.5c-4.6,0-8.4,3.2-9.2,7.5c-0.1,0-0.1,0-0.2,0
	c-3.6,0-6.5,2.9-6.5,6.4c0,2.7,1.6,5,4,5.9l0.8-2.4c-1.3-0.6-2.2-2-2.2-3.5c0-2.2,1.8-3.9,4-3.9l0.1,0.1h0l2.2,0l0.4-2.2
	c0.6-3.2,3.4-5.5,6.7-5.5c3.3,0,6.1,2.3,6.7,5.5l0.4,2.1l2.1-0.1l0.1,0l0,0c2.2,0,4,1.8,4,3.9c0,1.8-1.2,3.3-2.8,3.8l-0.8,2.6
	c3.4-0.2,6.1-3,6.1-6.4C470.7,88.3,467.7,85.4,464.2,85.4"/>
<path class="st4" d="M448.4,100.4c0,0.9-0.7,1.6-1.6,1.6c-0.9,0-1.6-0.7-1.6-1.6c0-0.9,0.7-1.7,1.6-1.7
	C447.7,98.8,448.4,99.5,448.4,100.4"/>
<path class="st3" d="M454,100.4c0,0.9-0.7,1.6-1.6,1.6c-0.9,0-1.6-0.7-1.6-1.6c0-0.9,0.7-1.7,1.6-1.7C453.3,98.8,454,99.5,454,100.4
	"/>
<path class="st4" d="M459.7,100.4c0,0.9-0.7,1.6-1.6,1.6c-0.9,0-1.6-0.7-1.6-1.6c0-0.9,0.7-1.7,1.6-1.7
	C459,98.8,459.7,99.5,459.7,100.4"/>
<path class="st3" d="M450.4,94.8c0,0.9-0.7,1.7-1.6,1.7c-0.9,0-1.6-0.7-1.6-1.7c0-0.9,0.7-1.6,1.6-1.6
	C449.7,93.1,450.4,93.8,450.4,94.8"/>
<path class="st4" d="M456,94.8c0,0.9-0.7,1.7-1.6,1.7c-0.9,0-1.6-0.7-1.6-1.7c0-0.9,0.7-1.6,1.6-1.6C455.3,93.1,456,93.8,456,94.8"
	/>
<path class="st3" d="M461.7,94.8c0,0.9-0.7,1.7-1.6,1.7c-0.9,0-1.6-0.7-1.6-1.7c0-0.9,0.7-1.6,1.6-1.6
	C461,93.1,461.7,93.8,461.7,94.8"/>
<path class="st4" d="M452,106.1c0,0.9-0.7,1.6-1.6,1.6c-0.9,0-1.6-0.7-1.6-1.6c0-0.9,0.7-1.7,1.6-1.7
	C451.3,104.4,452,105.2,452,106.1"/>
<path class="st3" d="M446.4,106.1c0,0.9-0.7,1.6-1.6,1.6c-0.9,0-1.6-0.7-1.6-1.6c0-0.9,0.7-1.7,1.6-1.7
	C445.7,104.4,446.4,105.2,446.4,106.1"/>
<path class="st3" d="M457.7,106.1c0,0.9-0.7,1.6-1.6,1.6c-0.9,0-1.6-0.7-1.6-1.6c0-0.9,0.7-1.7,1.6-1.7
	C457,104.4,457.7,105.2,457.7,106.1"/>
<path class="st7" d="M576.3,74.4c1.8,0,3.3,1.5,3.3,3.3c0,1.8-1.4,3.3-3.3,3.3h-11.4"/>
<path class="st7" d="M572.3,77.5c0-1,0.8-1.7,1.8-1.7c1,0,1.8,0.7,1.8,1.7s-0.8,1.7-1.8,1.7h-9.1"/>
<path class="st7" d="M573.2,85.7c0,1.4,1.1,2.6,2.5,2.6c1.4,0,2.5-1.3,2.5-2.7c0-1.4-1.1-2.7-2.5-2.7h-10.8"/>
<path class="st7" d="M564.9,84.9h3.8"/>
<path class="st8" d="M618.6,76.9c3.8,0,7,3.1,7,6.9c0,3.8-3,6.9-6.8,6.9H595"/>
<path class="st8" d="M610.3,83.3c0-2.1,1.7-3.6,3.7-3.6s3.7,1.5,3.7,3.5s-1.7,3.5-3.7,3.5h-19"/>
<path class="st8" d="M612.2,100.4c0,2.9,2.4,5.4,5.3,5.4s5.3-2.6,5.3-5.5c0-2.9-2.4-5.5-5.3-5.5H595"/>
<path class="st8" d="M595,98.8h8"/>
<path class="st3" d="M650.8,81.7c0-1.6,0.7-3,1.8-4.1c-0.4-0.1-0.9-0.2-1.3-0.2c-2.4,0-4.3,1.9-4.3,4.3c0,2.4,1.9,4.3,4.3,4.3
	c0.5,0,0.9-0.1,1.3-0.2C651.4,84.7,650.8,83.3,650.8,81.7"/>
<path class="st3" d="M645.4,76.5c-0.1,0-0.2,0-0.3-0.1c-0.2-0.2-0.2-0.5,0-0.7l2-2c0.2-0.2,0.5-0.2,0.7,0c0.2,0.2,0.2,0.5,0,0.7
	l-2,2C645.6,76.4,645.5,76.5,645.4,76.5"/>
<path class="st3" d="M647.4,76.5c-0.1,0-0.2,0-0.3-0.1l-2-2c-0.2-0.2-0.2-0.5,0-0.7c0.2-0.2,0.5-0.2,0.7,0l2,2
	c0.2,0.2,0.2,0.5,0,0.7C647.7,76.4,647.6,76.5,647.4,76.5"/>
<path class="st3" d="M654,82.3c-0.1,0-0.2,0-0.3-0.1c-0.2-0.2-0.2-0.5,0-0.7l2-2c0.2-0.2,0.5-0.2,0.7,0c0.2,0.2,0.2,0.5,0,0.7l-2,2
	C654.3,82.2,654.2,82.3,654,82.3"/>
<path class="st3" d="M656.1,82.3c-0.1,0-0.2,0-0.3-0.1l-2-2c-0.2-0.2-0.2-0.5,0-0.7c0.2-0.2,0.5-0.2,0.7,0l2,2
	c0.2,0.2,0.2,0.5,0,0.7C656.3,82.2,656.2,82.3,656.1,82.3"/>
<path class="st3" d="M689.5,96.2c0-3.3,1.4-6.3,3.7-8.5c-0.9-0.3-1.8-0.5-2.8-0.5c-4.9,0-8.9,4-8.9,8.9c0,4.9,4,8.9,8.9,8.9
	c1,0,1.9-0.2,2.8-0.5C691,102.5,689.5,99.5,689.5,96.2"/>
<path class="st3" d="M678.4,85.4c-0.3,0-0.5-0.1-0.7-0.3c-0.4-0.4-0.4-1,0-1.4l4.2-4.2c0.4-0.4,1-0.4,1.4,0s0.4,1,0,1.4l-4.2,4.2
	C678.9,85.3,678.6,85.4,678.4,85.4"/>
<path class="st3" d="M682.6,85.4c-0.3,0-0.5-0.1-0.7-0.3l-4.2-4.2c-0.4-0.4-0.4-1,0-1.4s1-0.4,1.4,0l4.2,4.2c0.4,0.4,0.4,1,0,1.4
	C683.1,85.3,682.9,85.4,682.6,85.4"/>
<path class="st3" d="M696.4,97.4c-0.3,0-0.5-0.1-0.7-0.3c-0.4-0.4-0.4-1,0-1.4l4.2-4.2c0.4-0.4,1-0.4,1.4,0s0.4,1,0,1.4l-4.2,4.2
	C696.9,97.3,696.6,97.4,696.4,97.4"/>
<path class="st3" d="M700.6,97.4c-0.3,0-0.5-0.1-0.7-0.3l-4.2-4.2c-0.4-0.4-0.4-1,0-1.4s1-0.4,1.4,0l4.2,4.2c0.4,0.4,0.4,1,0,1.4
	C701.1,97.3,700.9,97.4,700.6,97.4"/>
<path class="st0" d="M494,75.1c1.7,0,3.1,1.4,3.1,3.1s-1.4,3.1-3.1,3.1s-3.1-1.4-3.1-3.1S492.3,75.1,494,75.1 M494,73.9
	c-2.4,0-4.3,1.9-4.3,4.3s1.9,4.3,4.3,4.3c2.4,0,4.3-1.9,4.3-4.3S496.4,73.9,494,73.9"/>
<path class="st3" d="M501.4,82.7c0,0-0.1,0-0.1,0c-0.4-2.1-2.2-3.6-4.4-3.6c-2.2,0-4,1.6-4.4,3.6c0,0-0.1,0-0.1,0
	c-1.7,0-3.1,1.3-3.1,3c0,1.7,1.4,3,3.1,3h9c1.7,0,3.1-1.3,3.1-3C504.5,84,503.1,82.7,501.4,82.7"/>
<path class="st0" d="M528.9,79.9c3.6,0,6.5,2.9,6.5,6.5s-2.9,6.5-6.5,6.5s-6.5-2.9-6.5-6.5S525.3,79.9,528.9,79.9 M528.9,77.4
	c-4.9,0-9,4.1-9,9s4.1,9,9,9c4.9,0,9-4.1,9-9S533.8,77.4,528.9,77.4"/>
<path class="st3" d="M544.3,95.7c-0.1,0-0.1,0-0.2,0c-0.8-4.3-4.6-7.5-9.2-7.5c-4.6,0-8.4,3.2-9.2,7.5c-0.1,0-0.1,0-0.2,0
	c-3.6,0-6.5,2.8-6.5,6.3c0,3.6,2.9,6.3,6.5,6.3h18.8c3.6,0,6.5-2.8,6.5-6.3C550.8,98.5,547.8,95.7,544.3,95.7"/>
</svg>
